<svg width="817" height="866" viewBox="0 0 817 866" fill="none" xmlns="http://www.w3.org/2000/svg">
<path d="M191.057 717.394C187.63 730.121 184.173 742.839 180.783 755.575C171.766 789.444 162.794 823.325 153.766 857.191C151.684 864.998 151.612 865.066 144.03 865.078C97.5384 865.156 51.0467 865.193 4.55508 865.225C3.58557 865.226 2.61591 865.003 0.773499 864.777C2.29601 859.492 3.80864 854.571 5.12991 849.599C13.1592 819.386 21.1424 789.161 29.1461 758.942C32.5166 746.216 35.9879 733.515 39.2202 720.754C40.1362 717.138 41.9373 715.301 45.717 715.443C50.5356 715.624 55.3576 715.82 60.1783 715.823C99.3444 715.854 138.511 715.838 177.677 715.843C189.362 715.844 189.771 715.713 192.751 704.686C196.483 690.878 199.796 676.957 203.517 663.145C209.336 641.543 215.425 620.013 221.255 598.413C229.288 568.651 237.189 538.854 245.137 509.069C245.433 507.959 245.626 506.821 246.011 505.027C211.636 505.027 177.609 505.027 142.004 505.027C151.591 469.229 160.919 434.395 170.313 399.317C205.384 399.317 240.304 399.317 276.144 399.317C266.893 433.95 257.745 468.197 248.503 502.8C318.926 502.8 388.711 502.8 459.238 502.8C472.31 454.147 485.413 405.373 498.722 355.834C463.648 355.834 429.562 355.834 394.703 355.834C403.969 320.952 413.047 286.777 422.261 252.095C398.008 252.095 374.402 252.095 349.629 252.095C350.552 247.818 351.198 244.068 352.18 240.407C357.08 222.126 362.065 203.867 367.028 185.602C369.355 177.04 369.362 177.04 378.149 177.039C398.149 177.038 418.149 177.039 438.148 177.039C439.929 177.039 441.709 177.039 444.115 177.039C437.543 201.656 431.184 225.478 424.663 249.902C459.334 249.902 493.385 249.902 528.743 249.902C519.325 284.908 510.112 319.149 500.803 353.747C549.968 353.747 598.725 353.747 648.016 353.747C653.202 333.948 658.392 314.06 663.647 294.189C664.15 292.288 665.112 290.512 665.767 288.646C668.417 281.101 668.404 281.065 676.018 281.057C696.184 281.034 716.351 281.041 736.517 281.036C738.12 281.036 739.722 281.036 742.151 281.036C739.555 290.595 737.156 299.276 734.844 307.979C731.164 321.829 727.409 335.66 723.972 349.57C722.849 354.115 721.025 356.128 715.899 356.049C695.405 355.735 674.9 356.069 654.404 355.803C650.012 355.746 648.562 357.234 647.524 361.288C640.738 387.781 633.728 414.216 626.659 440.635C621.179 461.116 615.557 481.56 609.792 501.962C609.442 503.201 607.334 504.631 605.934 504.757C601.801 505.131 597.612 504.898 593.446 504.898C551.113 504.888 508.78 504.876 466.448 504.866C464.467 504.865 462.486 504.866 460.434 504.866C452.823 533.211 445.289 561.182 437.806 589.166C433.125 606.673 428.574 624.214 423.867 641.714C417.162 666.642 410.368 691.547 402.949 716.366C401.797 716.183 401.308 716.021 400.819 716.021C332.199 716.006 263.579 715.996 194.959 716.058C193.658 716.059 192.357 716.93 191.057 717.394Z" fill="#4A86E8"/>
<path d="M598.343 151.232C604.559 127.991 610.536 105.089 616.573 82.2036C619.005 72.9854 619.065 73.0014 628.43 73.0013C658.411 73.0012 688.392 72.9391 718.373 73.0813C721.988 73.0984 723.464 72.1351 724.401 68.4707C729.747 47.5621 735.536 26.7668 740.908 5.86437C741.858 2.16793 743.326 0.617285 747.202 0.61849C769.179 0.625342 791.156 0.464369 813.132 0.316839C816.56 0.293829 817.424 1.54721 816.484 4.93713C811.475 23.007 806.678 41.1357 801.741 59.2258C800.669 63.1551 798.979 66.9433 798.209 70.9195C797.538 74.3881 795.722 75.0088 792.653 74.9964C772.166 74.9136 751.676 75.1509 731.194 74.8232C726.125 74.7421 724.119 76.2045 722.831 81.13C714.746 112.046 706.248 142.854 698.062 173.744C697.141 177.221 695.742 178.743 692.036 178.731C659.73 178.625 627.423 178.66 595.116 178.621C593.854 178.62 592.593 178.299 590.568 178.024C593.173 168.913 595.651 160.246 598.343 151.232Z" fill="#4A86E8"/>
</svg>
